<svg xmlns="http://www.w3.org/2000/svg" viewBox="0 0 478.21 100.04"><title>Logo-juego</title><g id="Capa_2" data-name="Capa 2"><g id="Capa_1-2" data-name="Capa 1"><path d="M74,51.12a34.92,34.92,0,0,1-1.75,16.31,38.12,38.12,0,0,1-9.16,14.15c-5,5-12,8-18.87,9.58A33.87,33.87,0,0,1,27.88,91a43.41,43.41,0,0,1-15.67-8.14,31.94,31.94,0,0,1-10.13-14,32.53,32.53,0,0,1-1-3.36A38.37,38.37,0,0,1,1.21,47,34.65,34.65,0,0,1,11.43,30.76a40.88,40.88,0,0,1,19-9.41,34.64,34.64,0,0,1,16.29.15C54,23.85,62,26.63,66.41,33.31Q57.67,40.77,49.1,48.39c-3.22-1.67-5.94-2.3-8.12-1.84a8.11,8.11,0,0,0-1.78.6,11.18,11.18,0,0,0-4.16,6A8.69,8.69,0,0,0,37.09,58Q55.53,54.21,74,51.12Zm-.84,1.11Q55.07,55.46,37.05,59.3a4.08,4.08,0,0,1-2.16-2.36c-.1-.23-.37-1.32-.79-3.27a9.71,9.71,0,0,1,4-7,11.56,11.56,0,0,1,2.74-.95,10.81,10.81,0,0,1,8,1.34c1-1,3.78-3.4,8.33-7.08a46.28,46.28,0,0,0,7.68-7.37A32.67,32.67,0,0,0,48.73,23.1a42.91,42.91,0,0,0-19.23-.38,44.49,44.49,0,0,0-13.37,5.52A32.19,32.19,0,0,0,3.31,43.36C.91,49.27-.46,55.71,1,62.1A38.75,38.75,0,0,0,9.26,78.81,36.23,36.23,0,0,0,24.79,89.16a37.71,37.71,0,0,0,20.07,1A35.73,35.73,0,0,0,59,83.8,38,38,0,0,0,70.46,69.54c2.39-5.47,3.83-11.12,2.76-17.31Zm-1.12,1.53a31.25,31.25,0,0,1-3.4,15.8,34.91,34.91,0,0,1-10.62,13,40.24,40.24,0,0,1-13.81,6.2,33.69,33.69,0,0,1-20.91-1.62A35.65,35.65,0,0,1,10.28,78,33.19,33.19,0,0,1,3,64.15,34.17,34.17,0,0,1,2,57.4C1.69,51,3.89,45.33,6.89,40.08A31.78,31.78,0,0,1,20.57,27.3a45.82,45.82,0,0,1,9.24-3.16,39.62,39.62,0,0,1,17.8.12,33.15,33.15,0,0,1,15.3,8.46A46,46,0,0,1,56.07,39a83.75,83.75,0,0,0-7.13,6.07,14.54,14.54,0,0,0-8.53-.63,15.81,15.81,0,0,0-3.27,1.06,12.4,12.4,0,0,0-4.48,7.91c.3,1.38.61,2.79,1,4.12a4.3,4.3,0,0,0,3,3.14q17.66-3.76,35.41-7Zm-3.54,7.08-2.08-.3c-.6,6.21-3.9,10.92-8,15s-9.31,7-14.7,9c.14.63.2,1,.33,1.57l4.08-.86a33.13,33.13,0,0,0,13.6-9.57,26.39,26.39,0,0,0,6.76-14.91Z"/><path d="M149.55,35.41q-20.91,2-41.72,4.72a6.58,6.58,0,0,0-1,4.92,10.22,10.22,0,0,0,1.8,4.69q7.32-.68,14.65-1.22l.87,7.24q-7,1.18-13.91,2.44a8.41,8.41,0,0,0-.32,2.69,19.83,19.83,0,0,0,.33,3c.25,1.43.41,2.42.48,2.95,4.51-.22,9-.68,13.49-1.15s9.11-1,13.64-1.56,9.16-1,13.74-1.35q.58,6.32,1.16,12.63-35.31,3.33-70.26,9.19L70.31,13Q108.1,6.63,146.21,3,147.89,19.22,149.55,35.41Zm2.52,39.17c-.39-4.18-.58-6.27-1-10.46q-20.33,1.78-40.56,4.35l-1.7-10.74A28.58,28.58,0,0,1,116,56c4.62-.57,7.13-.83,7.43-.85-.28-2.29-.42-3.44-.69-5.72q-7.61.59-15.17,1.3a22.36,22.36,0,0,1-1.67-5.83,11.08,11.08,0,0,1,.42-5.51q21-2.82,42-4.81Q147,19.5,145.61,4.4,108.48,7.93,71.7,14.05q5.67,34.79,11.35,69.54Q117.42,77.88,152.07,74.58Zm-1.36-1.12q-33.28,3.21-66.26,8.68l-11.28-67Q108.45,9.28,144,5.82q1.5,13.79,3,27.56-21,2-41.81,4.84c-.48.62-.71.94-1.18,1.56.11.42.37,2.59.83,6.44a13.76,13.76,0,0,0,1.84,6q7.45-.67,14.93-1.22c.13,1.1.2,1.66.33,2.75q-7.12,1.23-14.24,2.52a36.06,36.06,0,0,0,.17,7.27,13.59,13.59,0,0,0,2.42,6.58q19.63-2.64,39.35-4.55C150,68.73,150.26,70.31,150.71,73.46ZM109.78,13.92c-.11-.77-.16-1.17-.26-1.95q-16.83,2.08-33.59,4.67Q78.1,29.83,80.29,43L82,42.7Q80.37,30.85,78.79,19q15.45-2.74,31-5.07Z"/><path d="M223.26,70.29c-15.82.69-31.61,1.76-47.39,2.79q-10.12.65-20.28,1.19L149.34,3.21A73.09,73.09,0,0,0,157.45,3c4.61-.36,9.24-1,13.82-1.52S180.55.37,185.19.13c6.3-.32,13-.16,19.13,1.7C210.2,3.62,215.86,7,219.54,12.05a16.88,16.88,0,0,1,3.33,10.32,17.74,17.74,0,0,1-2.34,9.3,25.93,25.93,0,0,1-10.21,9.58,73.07,73.07,0,0,1-12.83,4.8Q210.6,57.94,223.26,70.29ZM221.6,19.52c-2.12-6.95-7.26-13.09-14.11-15.66S192.35.9,185,1.33c-4.12.22-8.28.62-12.4,1s-8.08.86-12.12,1.18a65.56,65.56,0,0,1-9.71.13q2.93,34.86,5.83,69.71,32.4-2.73,64.89-3.31-12.57-12.22-25.55-24c0-.52,0-.79-.06-1.31a31.18,31.18,0,0,0,15.74-5.34c5.9-3.77,10.34-10.16,10.22-17.34a19.91,19.91,0,0,0-.19-2.56Zm-1.54,6.37c-.79,3.65-3.74,7.63-6.42,10a31.49,31.49,0,0,1-10.27,6.06A16.51,16.51,0,0,1,198.54,43a7.67,7.67,0,0,0-4.41,1.57c.16.9.24,1.34.41,2.24q12,10.8,23.62,22Q188,69.42,158,71.88L152,5.61c2.28,0,4.8-.1,7.53-.32,4.29-.34,8.58-.9,12.85-1.38s8.68-1.07,12.94-1.23a59.73,59.73,0,0,1,17.25,1.39C208,5.48,214,8.46,216.81,12.53a20.32,20.32,0,0,1,3.61,10.37,11.63,11.63,0,0,1-.34,3Zm-7.49,40.72q-8-7.5-16.16-14.79l-3.08.13q6.6,6.09,13.1,12.27a33.29,33.29,0,0,1-5.92.5,19.58,19.58,0,0,0-5.83.9l.06,1.38q8.94-.27,17.84-.39Zm4.75-43.31-1.71,0c-.26,4.08-3.6,7-6.24,9.7-.6.75-2.34,1.67-5.21,2.71-2.35.87-3.52,2-3.48,3.26a5.13,5.13,0,0,0,.2,1.16c3.18-1.4,4.77-2.08,8-3.47a17.94,17.94,0,0,0,6.3-5.88,12.27,12.27,0,0,0,2.18-7.5Zm-8.17,42.23h-.52V65h.52Z"/><path d="M232.44,27.82a6.86,6.86,0,0,1,4.89,1.93,6.35,6.35,0,0,1,.34,9l-.34.34a7.21,7.21,0,0,1-9.71,0,6.42,6.42,0,0,1-.29-9.08c.07-.07.14-.15.22-.22A6.77,6.77,0,0,1,232.44,27.82Zm0,1.83a4.8,4.8,0,0,0-3.52,1.43,4.55,4.55,0,0,0-.19,6.44l.23.22a4.93,4.93,0,0,0,3.51,1.39,5,5,0,0,0,3.47-1.39,4.48,4.48,0,0,0,.33-6.33,3.43,3.43,0,0,0-.33-.33,4.88,4.88,0,0,0-3.49-1.43Zm2.16,7.58a3.4,3.4,0,0,1-2.44,1,3.51,3.51,0,0,1-2.52-.94,3.2,3.2,0,0,1-1-2.4,3.13,3.13,0,0,1,1-2.34c2,1.89,3,2.83,5,4.73ZM230.16,33a2.55,2.55,0,0,0-.76,1.82,2.5,2.5,0,0,0,.84,1.86,2.74,2.74,0,0,0,1.94.76,2.85,2.85,0,0,0,1.91-.74Z"/><path d="M319.25,75.21q-37-3.33-74.11-3.87.39-35.18.78-70.36,19.44,18,37.89,37c6.95-5.47,13.83-11.11,20.69-16.68q10.56-8.55,21.35-16.87Q322.57,39.8,319.25,75.21Zm-.93-1.11,6.24-67.45q-20.32,15.48-39.82,32l-1.67-.09c-5.87-6.12-11.76-12.25-17.71-18.19A183.3,183.3,0,0,0,246.6,3.53q-.39,33.39-.81,66.8Q282.15,70.9,318.32,74.1Zm-1-1.34q-34.89-3.06-69.87-3.65-.06-15.68.12-31.36t.71-31.43Q265.52,22.67,282,39.79l3.66.19q18.11-15.49,36.94-30.09-2.6,31.44-5.24,62.87Zm-4.81-5.25q.56-10.86,1.09-21.72l-1.21-.1q-1.14,9.57-2.26,19.15a19.74,19.74,0,0,1-6.82.42c-.6-.05-1.48-.16-2.59-.26s-2-.15-2.52-.18a25.67,25.67,0,0,0-4.47,0l-.1,1.6Q303.09,66.87,312.52,67.51Z"/><path d="M399.23,86.45q-38.87-7-78.16-10.92,24.07-33.4,50.53-64.95a392.79,392.79,0,0,1,14.87,37.67C390.86,60.9,395,73.73,399.23,86.45Zm-1.72-1.67c-3.75-12.22-8-24.31-12.23-36.36s-8.86-24.15-13.95-36Q345.7,42.84,322.28,75c8.45.76,16.89,1.74,25.28,2.82s16.77,2.3,25.14,3.5,16.53,2.4,24.81,3.52Zm-1.95-1.31q-35-6.18-70.38-9.82,21.9-29.93,45.74-58.29a722.36,722.36,0,0,1,24.64,68.12Zm-3.38-3.21c-2.19-6.6-4.64-13.11-7.08-19.62l-1.81.6a64.68,64.68,0,0,0,2.58,8.48,32.21,32.21,0,0,1,2,8.19q-6.13-.69-12.29-1.25c-.09.61-.14.91-.23,1.51.34.06,3.14.49,8.34,1.42a35.8,35.8,0,0,0,8.46.68Z"/><path d="M460.14,100q-29.44-7.5-59.28-13.14,6.48-34.74,12.95-69.47,14.71,21.95,28.28,44.62c1.91-6.36,3.6-12.8,5.24-19.23s3.25-13,5-19.43q13,3,25.88,6.27Q469.18,64.83,460.14,100Zm-.05-1,17.49-68.18q-12.4-3.14-24.84-6Q447.87,44.58,443,64.3C438,57,433.26,49.51,428.57,42.05s-9.58-15-14.44-22.39q-6.21,33.23-12.43,66.45Q431.1,91.69,460.09,99Zm-.54-1.8q-28-6.91-56.31-12.2,5.83-30.78,11.61-61.56,7.26,11,14.23,22.15c4.65,7.46,9.28,14.93,14.11,22.27,2.22-6.8,3.88-13.78,5.47-20.74s3.1-14,5.13-20.9q11.07,2.58,22.1,5.36-8.16,32.81-16.34,65.6Zm-3.19-5,5.55-23.43-1.34-.33c-1.9,7-4.21,13.9-6.47,20.79q-8.84-1.79-17.69-3.44l-.36,1.57q10.18,2.27,20.31,4.8Z"/></g></g></svg>